<svg width="24" height="24" viewBox="0 0 24 24" fill="none" xmlns="http://www.w3.org/2000/svg">
<rect x="2" y="2" width="20" height="20" rx="10" fill="#DEDCDC"/>
<g clip-path="url(#clip0_1937_35014)">
<path d="M15.8846 9.28068C16.2069 8.95842 16.2069 8.43506 15.8846 8.11279C15.5623 7.79053 15.039 7.79053 14.7167 8.11279L12.0019 10.8301L9.28459 8.11537C8.96232 7.79311 8.43896 7.79311 8.1167 8.11537C7.79443 8.43764 7.79443 8.961 8.1167 9.28326L10.834 11.998L8.11928 14.7154C7.79701 15.0376 7.79701 15.561 8.11928 15.8833C8.44154 16.2055 8.9649 16.2055 9.28717 15.8833L12.0019 13.1659L14.7193 15.8807C15.0415 16.2029 15.5649 16.2029 15.8872 15.8807C16.2094 15.5584 16.2094 15.0351 15.8872 14.7128L13.1698 11.998L15.8846 9.28068Z" fill="#737272"/>
</g>
<defs>
<clipPath id="clip0_1937_35014">
<rect width="8.25" height="13.2" fill="white" transform="translate(7.875 5.39844)"/>
</clipPath>
</defs>
</svg>
