<svg width="24" height="24" viewBox="0 0 24 24" fill="none" xmlns="http://www.w3.org/2000/svg">
<g clip-path="url(#clip0_1937_35019)">
<path d="M20.75 5H3.25C2.28349 5 1.5 5.78349 1.5 6.75V17.25C1.5 18.2165 2.28349 19 3.25 19H20.75C21.7165 19 22.5 18.2165 22.5 17.25V6.75C22.5 5.78349 21.7165 5 20.75 5ZM21.0417 17.25C21.0417 17.4108 20.9108 17.5417 20.75 17.5417H3.25C3.08918 17.5417 2.95833 17.4108 2.95833 17.25V6.75C2.95833 6.58918 3.08918 6.45833 3.25 6.45833H20.75C20.9108 6.45833 21.0417 6.58918 21.0417 6.75V17.25ZM7.69792 12.5104V11.4896C7.69792 11.248 7.50203 11.0521 7.26042 11.0521H6.23958C5.99797 11.0521 5.80208 11.248 5.80208 11.4896V12.5104C5.80208 12.752 5.99797 12.9479 6.23958 12.9479H7.26042C7.50203 12.9479 7.69792 12.752 7.69792 12.5104ZM11.1979 12.5104V11.4896C11.1979 11.248 11.002 11.0521 10.7604 11.0521H9.73958C9.49797 11.0521 9.30208 11.248 9.30208 11.4896V12.5104C9.30208 12.752 9.49797 12.9479 9.73958 12.9479H10.7604C11.002 12.9479 11.1979 12.752 11.1979 12.5104ZM14.6979 12.5104V11.4896C14.6979 11.248 14.502 11.0521 14.2604 11.0521H13.2396C12.998 11.0521 12.8021 11.248 12.8021 11.4896V12.5104C12.8021 12.752 12.998 12.9479 13.2396 12.9479H14.2604C14.502 12.9479 14.6979 12.752 14.6979 12.5104ZM18.1979 12.5104V11.4896C18.1979 11.248 18.002 11.0521 17.7604 11.0521H16.7396C16.498 11.0521 16.3021 11.248 16.3021 11.4896V12.5104C16.3021 12.752 16.498 12.9479 16.7396 12.9479H17.7604C18.002 12.9479 18.1979 12.752 18.1979 12.5104ZM5.94792 15.5V14.4792C5.94792 14.2376 5.75203 14.0417 5.51042 14.0417H4.48958C4.24797 14.0417 4.05208 14.2376 4.05208 14.4792V15.5C4.05208 15.7416 4.24797 15.9375 4.48958 15.9375H5.51042C5.75203 15.9375 5.94792 15.7416 5.94792 15.5ZM19.9479 15.5V14.4792C19.9479 14.2376 19.752 14.0417 19.5104 14.0417H18.4896C18.248 14.0417 18.0521 14.2376 18.0521 14.4792V15.5C18.0521 15.7416 18.248 15.9375 18.4896 15.9375H19.5104C19.752 15.9375 19.9479 15.7416 19.9479 15.5ZM5.94792 9.52083V8.5C5.94792 8.25839 5.75203 8.0625 5.51042 8.0625H4.48958C4.24797 8.0625 4.05208 8.25839 4.05208 8.5V9.52083C4.05208 9.76244 4.24797 9.95833 4.48958 9.95833H5.51042C5.75203 9.95833 5.94792 9.76244 5.94792 9.52083ZM9.44792 9.52083V8.5C9.44792 8.25839 9.25203 8.0625 9.01042 8.0625H7.98958C7.74797 8.0625 7.55208 8.25839 7.55208 8.5V9.52083C7.55208 9.76244 7.74797 9.95833 7.98958 9.95833H9.01042C9.25203 9.95833 9.44792 9.76244 9.44792 9.52083ZM12.9479 9.52083V8.5C12.9479 8.25839 12.752 8.0625 12.5104 8.0625H11.4896C11.248 8.0625 11.0521 8.25839 11.0521 8.5V9.52083C11.0521 9.76244 11.248 9.95833 11.4896 9.95833H12.5104C12.752 9.95833 12.9479 9.76244 12.9479 9.52083ZM16.4479 9.52083V8.5C16.4479 8.25839 16.252 8.0625 16.0104 8.0625H14.9896C14.748 8.0625 14.5521 8.25839 14.5521 8.5V9.52083C14.5521 9.76244 14.748 9.95833 14.9896 9.95833H16.0104C16.252 9.95833 16.4479 9.76244 16.4479 9.52083ZM19.9479 9.52083V8.5C19.9479 8.25839 19.752 8.0625 19.5104 8.0625H18.4896C18.248 8.0625 18.0521 8.25839 18.0521 8.5V9.52083C18.0521 9.76244 18.248 9.95833 18.4896 9.95833H19.5104C19.752 9.95833 19.9479 9.76244 19.9479 9.52083ZM16.375 15.2812V14.6979C16.375 14.4563 16.1791 14.2604 15.9375 14.2604H8.0625C7.82089 14.2604 7.625 14.4563 7.625 14.6979V15.2812C7.625 15.5229 7.82089 15.7188 8.0625 15.7188H15.9375C16.1791 15.7188 16.375 15.5229 16.375 15.2812Z" fill="#737272"/>
</g>
<defs>
<clipPath id="clip0_1937_35019">
<rect width="21" height="18.6667" fill="white" transform="translate(1.5 2.66797)"/>
</clipPath>
</defs>
</svg>
